<?xml version="1.0" encoding="utf-8"?>
<svg viewBox="63.212 168.842 336.148 156.494" xmlns="http://www.w3.org/2000/svg" xmlns:bx="https://boxy-svg.com">
  <defs>
    <style bx:fonts="Fira Sans Condensed">@import url(https://fonts.googleapis.com/css2?family=Fira+Sans+Condensed%3Aital%2Cwght%400%2C100%3B0%2C200%3B0%2C300%3B0%2C400%3B0%2C500%3B0%2C600%3B0%2C700%3B0%2C800%3B0%2C900%3B1%2C100%3B1%2C200%3B1%2C300%3B1%2C400%3B1%2C500%3B1%2C600%3B1%2C700%3B1%2C800%3B1%2C900&amp;display=swap);</style>
    <path id="path-0" style="fill: none;" d="M 81.903 353.097 C 96.819 358.509 112.689 357.293 125.427 358.043 C 149.444 361.881 170.353 362.659 189.723 362.659 C 208.188 362.659 224.015 362.659 239.841 362.659 C 258.083 361.441 272.617 356.841 286.992 355.735 C 299.72 353.888 309.584 351.005 317.327 345.843 C 320.803 345.184 323.006 344.194 325.57 344.194 C 330.484 342.666 338.222 343.686 342.715 345.184 C 347.165 347.573 352.197 353.514 353.596 357.713 C 363.506 365.145 378.199 366.286 388.547 366.286 L 392.174 366.616 C 394.958 366.925 397.621 367.275 400.417 367.275"/>
  </defs>
  <text style="fill: rgb(51, 51, 51); font-family: &quot;Fira Sans Condensed&quot;; font-size: 140px; font-weight: 500; white-space: pre;"><tspan x="82.69" y="299.445">a</tspan><tspan style="letter-spacing: -2px;">ƶ</tspan><tspan style="font-size: 109.7px; font-weight: 700; letter-spacing: -3.5px;">◊</tspan><tspan style="letter-spacing: -2.5px;">t</tspan><tspan>h</tspan></text>
</svg>