<?xml version="1.0" encoding="utf-8"?>
<svg viewBox="76.916 176.908 317.965 139.135" xmlns="http://www.w3.org/2000/svg">
  <defs>
    <path id="path-0" style="fill: none;" d="M 81.903 353.097 C 96.819 358.509 112.689 357.293 125.427 358.043 C 149.444 361.881 170.353 362.659 189.723 362.659 C 208.188 362.659 224.015 362.659 239.841 362.659 C 258.083 361.441 272.617 356.841 286.992 355.735 C 299.72 353.888 309.584 351.005 317.327 345.843 C 320.803 345.184 323.006 344.194 325.57 344.194 C 330.484 342.666 338.222 343.686 342.715 345.184 C 347.165 347.573 352.197 353.514 353.596 357.713 C 363.506 365.145 378.199 366.286 388.547 366.286 L 392.174 366.616 C 394.958 366.925 397.621 367.275 400.417 367.275"/>
  </defs>
  <path d="M 147.48999969482423 275.0809582519531 Q 147.48999969482423 279.00095825195314 148.60999969482424 280.8909582519531 Q 149.72999969482422 282.7809582519531 152.24999969482423 283.9009582519531 L 148.60999969482424 295.5209582519531 Q 142.58999969482423 294.82095825195313 138.87999969482422 292.44095825195313 Q 135.1699996948242 290.06095825195314 133.34999969482422 285.0209582519531 Q 126.48999969482422 295.80095825195315 113.46999969482422 295.80095825195315 Q 103.52999969482423 295.80095825195315 97.64999969482422 289.50095825195314 Q 91.76999969482422 283.2009582519531 91.76999969482422 272.9809582519531 Q 91.76999969482422 260.94095825195313 99.74999969482423 254.57095825195313 Q 107.72999969482422 248.20095825195312 122.84999969482422 248.20095825195312 L 130.2699996948242 248.20095825195312 L 130.2699996948242 243.58095825195312 Q 130.2699996948242 236.58095825195312 127.46999969482422 233.64095825195312 Q 124.66999969482421 230.70095825195312 118.36999969482423 230.70095825195312 Q 111.08999969482423 230.70095825195312 100.44999969482421 234.48095825195313 L 96.38999969482421 222.86095825195312 Q 109.12999969482422 217.5409582519531 121.16999969482421 217.5409582519531 Q 147.48999969482423 217.5409582519531 147.48999969482423 242.60095825195313 L 147.48999969482423 275.0809582519531 Z M 118.22999969482422 283.06095825195314 Q 125.92999969482423 283.06095825195314 130.2699996948242 273.9609582519531 L 130.2699996948242 258.56095825195314 L 124.66999969482421 258.56095825195314 Q 109.26999969482422 258.56095825195314 109.26999969482422 271.7209582519531 Q 109.26999969482422 277.32095825195313 111.64999969482422 280.19095825195313 Q 114.02999969482423 283.06095825195314 118.22999969482422 283.06095825195314 Z" transform="matrix(1, 0, 0, 1, 0, 0)" style="fill: rgb(51, 51, 51); white-space: pre;"/>
  <path d="M 177.45471008300783 280.4009582519531 L 211.33471008300782 280.4009582519531 L 209.6547100830078 293.7009582519531 L 158.9747100830078 293.7009582519531 L 158.9747100830078 281.5209582519531 L 172.27471008300782 262.2009582519531 L 163.17471008300782 262.2009582519531 L 163.17471008300782 250.58095825195312 L 180.2547100830078 250.58095825195312 L 192.29471008300783 232.94095825195313 L 161.77471008300782 232.94095825195313 L 161.77471008300782 219.64095825195312 L 210.77471008300782 219.64095825195312 L 210.77471008300782 231.82095825195313 L 197.89471008300782 250.58095825195312 L 207.1347100830078 250.58095825195312 L 207.1347100830078 262.2009582519531 L 189.91471008300783 262.2009582519531 Z" transform="matrix(1, 0, 0, 1, 0, 0)" style="fill: rgb(51, 51, 51); white-space: pre;"/>
  <path d="M 250.17358583984375 219.6534582519531 L 267.17708583984376 256.62235825195313 L 250.17358583984375 293.7009582519531 L 231.63428583984376 293.7009582519531 L 214.63078583984375 256.62235825195313 L 231.63428583984376 219.6534582519531 Z M 240.84908583984375 231.5010582519531 L 230.86638583984376 256.5126582519531 L 240.84908583984375 281.8533582519531 L 250.94148583984375 256.62235825195313 Z" transform="matrix(1, 0, 0, 1, 0, 0)" style="fill: rgb(51, 51, 51); white-space: pre;"/>
  <path d="M 315.0300280761719 290.2009582519531 Q 311.39002807617186 293.00095825195314 306.9800280761719 294.4009582519531 Q 302.57002807617187 295.80095825195315 297.95002807617186 295.80095825195315 Q 287.7300280761719 295.80095825195315 282.34002807617185 289.92095825195315 Q 276.95002807617186 284.0409582519531 276.95002807617186 273.5409582519531 L 276.95002807617186 232.24095825195312 L 267.01002807617186 232.24095825195312 L 267.01002807617186 219.64095825195312 L 276.95002807617186 219.64095825195312 L 276.95002807617186 203.26095825195313 L 294.45002807617186 201.1609582519531 L 294.45002807617186 219.64095825195312 L 309.9900280761719 219.64095825195312 L 308.1700280761719 232.24095825195312 L 294.45002807617186 232.24095825195312 L 294.45002807617186 273.4009582519531 Q 294.45002807617186 277.6009582519531 296.0600280761719 279.63095825195313 Q 297.6700280761719 281.6609582519531 301.1700280761719 281.6609582519531 Q 304.95002807617186 281.6609582519531 308.8700280761719 279.2809582519531 Z" transform="matrix(1, 0, 0, 1, 0, 0)" style="fill: rgb(51, 51, 51); white-space: pre;"/>
  <path d="M 357.7485986328125 217.5409582519531 Q 366.4285986328125 217.5409582519531 371.5385986328125 223.42095825195312 Q 376.64859863281254 229.30095825195312 376.64859863281254 239.38095825195313 L 376.64859863281254 293.7009582519531 L 359.14859863281254 293.7009582519531 L 359.14859863281254 241.76095825195313 Q 359.14859863281254 235.88095825195313 357.2585986328125 233.43095825195311 Q 355.3685986328125 230.98095825195313 351.7285986328125 230.98095825195313 Q 344.7285986328125 230.98095825195313 338.4285986328125 242.04095825195313 L 338.4285986328125 293.7009582519531 L 320.9285986328125 293.7009582519531 L 320.9285986328125 190.1009582519531 L 338.4285986328125 188.2809582519531 L 338.4285986328125 228.46095825195312 Q 342.3485986328125 223.00095825195314 346.9685986328125 220.27095825195312 Q 351.5885986328125 217.5409582519531 357.7485986328125 217.5409582519531 Z" transform="matrix(1, 0, 0, 1, 0, 0)" style="fill: rgb(51, 51, 51); white-space: pre;"/>
</svg>